<?xml version="1.0" standalone="no"?>
<!DOCTYPE svg PUBLIC "-//W3C//DTD SVG 20010904//EN"
 "http://www.w3.org/TR/2001/REC-SVG-20010904/DTD/svg10.dtd">
<svg version="1.0" xmlns="http://www.w3.org/2000/svg"
 width="700.000000pt" height="700.000000pt" viewBox="0 0 700.000000 700.000000"
 preserveAspectRatio="xMidYMid meet">
<metadata>
Created by potrace 1.14, written by Peter Selinger 2001-2017
</metadata>
<g transform="translate(0.000000,700.000000) scale(0.100000,-0.100000)"
fill="#000000" stroke="none">
<path d="M3405 6700 c-33 -10 -157 -45 -275 -79 -728 -204 -1639 -460 -2210
-621 -388 -109 -636 -179 -755 -211 -60 -17 -121 -34 -135 -38 l-25 -8 -3
-2131 -2 -2131 32 -10 c46 -13 479 -160 503 -171 11 -5 67 -24 125 -44 58 -19
231 -78 385 -131 276 -95 435 -150 770 -265 560 -192 1107 -380 1330 -457 88
-30 203 -69 256 -87 l96 -33 99 38 c54 21 250 94 434 162 l335 125 3 1310 2
1311 83 25 c45 13 132 39 192 56 61 17 502 146 980 285 479 139 974 283 1100
320 127 36 239 69 250 74 20 8 20 17 20 827 l0 819 -115 36 c-63 21 -176 56
-250 79 -74 23 -205 63 -290 90 -191 60 -535 167 -837 261 -126 38 -298 92
-383 119 -85 26 -321 100 -525 163 -203 64 -530 165 -726 226 -196 61 -367
111 -380 110 -13 0 -51 -8 -84 -19z"/>
</g>
</svg>
