<?xml version="1.0" encoding="UTF-8"?>
<svg xmlns="http://www.w3.org/2000/svg" xmlns:xlink="http://www.w3.org/1999/xlink" width="300pt" height="299.999988pt" viewBox="0 0 300 299.999988" version="1.2">
<g id="surface1">
<path style=" stroke:none;fill-rule:nonzero;fill:rgb(74.119568%,74.119568%,76.078796%);fill-opacity:1;" d="M 217.242188 0 L 82.757812 0 C 71.332031 0 62.066406 9.261719 62.066406 20.6875 L 62.066406 31.035156 L 237.933594 31.035156 L 237.933594 20.6875 C 237.933594 9.261719 228.667969 0 217.242188 0 Z M 217.242188 0 "/>
<path style=" stroke:none;fill-rule:nonzero;fill:rgb(79.998779%,99.21875%,100%);fill-opacity:1;" d="M 62.066406 268.964844 L 237.933594 268.964844 L 237.933594 31.035156 L 62.066406 31.035156 Z M 62.066406 268.964844 "/>
<path style=" stroke:none;fill-rule:nonzero;fill:rgb(59.999084%,98.039246%,100%);fill-opacity:1;" d="M 113.792969 268.964844 L 237.929688 268.964844 L 237.929688 144.828125 C 237.972656 213.347656 182.457031 268.925781 113.9375 268.964844 Z M 113.792969 268.964844 "/>
<path style=" stroke:none;fill-rule:nonzero;fill:rgb(74.119568%,74.119568%,76.078796%);fill-opacity:1;" d="M 62.066406 279.3125 C 62.066406 290.738281 71.332031 300 82.757812 300 L 217.242188 300 C 228.667969 300 237.933594 290.738281 237.933594 279.3125 L 237.933594 268.964844 L 62.066406 268.964844 Z M 62.066406 279.3125 "/>
<path style=" stroke:none;fill-rule:nonzero;fill:rgb(100%,85.099792%,25.878906%);fill-opacity:1;" d="M 289.65625 72.414062 L 196.550781 72.414062 C 190.835938 72.414062 186.207031 77.046875 186.207031 82.757812 L 186.207031 144.828125 C 186.207031 150.539062 190.835938 155.171875 196.550781 155.171875 L 196.550781 191.378906 L 227.585938 155.171875 L 289.65625 155.171875 C 295.367188 155.171875 300 150.539062 300 144.828125 L 300 82.757812 C 300 77.046875 295.367188 72.414062 289.65625 72.414062 Z M 289.65625 72.414062 "/>
<path style=" stroke:none;fill-rule:nonzero;fill:rgb(100%,70.979309%,32.939148%);fill-opacity:1;" d="M 113.792969 227.585938 L 155.171875 227.585938 L 113.792969 196.550781 L 113.792969 165.515625 C 113.792969 159.804688 109.160156 155.171875 103.449219 155.171875 L 10.34375 155.171875 C 4.632812 155.171875 0 159.804688 0 165.515625 L 0 227.585938 C 0 233.300781 4.632812 237.933594 10.34375 237.933594 L 103.449219 237.933594 C 109.160156 237.933594 113.792969 233.300781 113.792969 227.585938 Z M 113.792969 227.585938 "/>
<path style=" stroke:none;fill-rule:nonzero;fill:rgb(94.119263%,94.119263%,94.119263%);fill-opacity:1;" d="M 165.515625 20.6875 L 155.171875 20.6875 C 152.316406 20.6875 150 18.375 150 15.519531 C 150 12.660156 152.316406 10.34375 155.171875 10.34375 L 165.515625 10.34375 C 168.375 10.34375 170.6875 12.660156 170.6875 15.519531 C 170.6875 18.375 168.375 20.6875 165.515625 20.6875 Z M 165.515625 20.6875 "/>
<path style=" stroke:none;fill-rule:nonzero;fill:rgb(94.119263%,94.119263%,94.119263%);fill-opacity:1;" d="M 160.34375 289.65625 L 139.65625 289.65625 C 136.796875 289.65625 134.484375 287.339844 134.484375 284.484375 C 134.484375 281.625 136.796875 279.3125 139.65625 279.3125 L 160.34375 279.3125 C 163.203125 279.3125 165.515625 281.628906 165.515625 284.484375 C 165.515625 287.339844 163.203125 289.65625 160.34375 289.65625 Z M 160.34375 289.65625 "/>
<path style=" stroke:none;fill-rule:nonzero;fill:rgb(94.119263%,94.119263%,94.119263%);fill-opacity:1;" d="M 139.65625 20.6875 L 134.484375 20.6875 C 131.625 20.6875 129.3125 18.375 129.3125 15.519531 C 129.3125 12.660156 131.628906 10.34375 134.484375 10.34375 L 139.65625 10.34375 C 142.511719 10.34375 144.828125 12.660156 144.828125 15.519531 C 144.828125 18.375 142.511719 20.6875 139.65625 20.6875 Z M 139.65625 20.6875 "/>
<path style=" stroke:none;fill-rule:nonzero;fill:rgb(59.999084%,98.039246%,100%);fill-opacity:1;" d="M 87.933594 72.414062 L 77.585938 72.414062 L 77.585938 46.550781 L 103.449219 46.550781 L 103.449219 56.894531 L 87.933594 56.894531 Z M 87.933594 72.414062 "/>
<path style=" stroke:none;fill-rule:nonzero;fill:rgb(59.999084%,98.039246%,100%);fill-opacity:1;" d="M 222.414062 253.449219 L 196.550781 253.449219 L 196.550781 243.101562 L 212.066406 243.101562 L 212.066406 227.585938 L 222.414062 227.585938 Z M 222.414062 253.449219 "/>
<path style=" stroke:none;fill-rule:nonzero;fill:rgb(100%,38.038635%,25.878906%);fill-opacity:1;" d="M 222.414062 118.964844 L 212.066406 118.964844 C 209.210938 118.964844 206.894531 116.648438 206.894531 113.792969 C 206.894531 110.9375 209.210938 108.621094 212.066406 108.621094 L 222.414062 108.621094 C 225.269531 108.621094 227.585938 110.9375 227.585938 113.792969 C 227.585938 116.648438 225.269531 118.964844 222.414062 118.964844 Z M 222.414062 118.964844 "/>
<path style=" stroke:none;fill-rule:nonzero;fill:rgb(100%,38.038635%,25.878906%);fill-opacity:1;" d="M 248.273438 118.964844 L 237.933594 118.964844 C 235.074219 118.964844 232.757812 116.648438 232.757812 113.792969 C 232.757812 110.9375 235.074219 108.621094 237.933594 108.621094 L 248.273438 108.621094 C 251.132812 108.621094 253.449219 110.9375 253.449219 113.792969 C 253.449219 116.648438 251.132812 118.964844 248.273438 118.964844 Z M 248.273438 118.964844 "/>
<path style=" stroke:none;fill-rule:nonzero;fill:rgb(100%,38.038635%,25.878906%);fill-opacity:1;" d="M 274.136719 118.964844 L 263.792969 118.964844 C 260.9375 118.964844 258.621094 116.648438 258.621094 113.792969 C 258.621094 110.9375 260.9375 108.621094 263.792969 108.621094 L 274.136719 108.621094 C 276.996094 108.621094 279.3125 110.9375 279.3125 113.792969 C 279.3125 116.648438 276.996094 118.964844 274.136719 118.964844 Z M 274.136719 118.964844 "/>
<path style=" stroke:none;fill-rule:nonzero;fill:rgb(100%,38.038635%,25.878906%);fill-opacity:1;" d="M 36.207031 201.726562 L 25.863281 201.726562 C 23.003906 201.726562 20.6875 199.410156 20.6875 196.550781 C 20.6875 193.695312 23.003906 191.378906 25.863281 191.378906 L 36.207031 191.378906 C 39.0625 191.378906 41.378906 193.695312 41.378906 196.550781 C 41.378906 199.410156 39.0625 201.726562 36.207031 201.726562 Z M 36.207031 201.726562 "/>
<path style=" stroke:none;fill-rule:nonzero;fill:rgb(100%,38.038635%,25.878906%);fill-opacity:1;" d="M 62.066406 201.726562 L 51.726562 201.726562 C 48.867188 201.726562 46.550781 199.410156 46.550781 196.550781 C 46.550781 193.695312 48.867188 191.378906 51.726562 191.378906 L 62.066406 191.378906 C 64.925781 191.378906 67.242188 193.695312 67.242188 196.550781 C 67.242188 199.410156 64.925781 201.726562 62.066406 201.726562 Z M 62.066406 201.726562 "/>
<path style=" stroke:none;fill-rule:nonzero;fill:rgb(100%,38.038635%,25.878906%);fill-opacity:1;" d="M 87.933594 201.726562 L 77.585938 201.726562 C 74.730469 201.726562 72.414062 199.410156 72.414062 196.550781 C 72.414062 193.695312 74.730469 191.378906 77.585938 191.378906 L 87.933594 191.378906 C 90.789062 191.378906 93.101562 193.695312 93.101562 196.550781 C 93.105469 199.410156 90.789062 201.726562 87.933594 201.726562 Z M 87.933594 201.726562 "/>
</g>
</svg>
